<svg id="visual" viewBox="0 0 960 540" width="960" height="540" xmlns="http://www.w3.org/2000/svg" xmlns:xlink="http://www.w3.org/1999/xlink" version="1.1"><rect x="0" y="0" width="960" height="540" fill="#232323"></rect><path d="M0 91L22.8 87.5C45.7 84 91.3 77 137 76.5C182.7 76 228.3 82 274 81C319.7 80 365.3 72 411.2 71.2C457 70.3 503 76.7 548.8 78.3C594.7 80 640.3 77 686 73.2C731.7 69.3 777.3 64.7 823 61.3C868.7 58 914.3 56 937.2 55L960 54L960 0L937.2 0C914.3 0 868.7 0 823 0C777.3 0 731.7 0 686 0C640.3 0 594.7 0 548.8 0C503 0 457 0 411.2 0C365.3 0 319.7 0 274 0C228.3 0 182.7 0 137 0C91.3 0 45.7 0 22.8 0L0 0Z" fill="#556b2f"></path><path d="M0 58L22.8 58.7C45.7 59.3 91.3 60.7 137 62.7C182.7 64.7 228.3 67.3 274 63.3C319.7 59.3 365.3 48.7 411.2 44.8C457 41 503 44 548.8 45.3C594.7 46.7 640.3 46.3 686 47C731.7 47.7 777.3 49.3 823 53.5C868.7 57.7 914.3 64.3 937.2 67.7L960 71L960 0L937.2 0C914.3 0 868.7 0 823 0C777.3 0 731.7 0 686 0C640.3 0 594.7 0 548.8 0C503 0 457 0 411.2 0C365.3 0 319.7 0 274 0C228.3 0 182.7 0 137 0C91.3 0 45.7 0 22.8 0L0 0Z" fill="#452f6b"></path><path d="M0 14L22.8 17.7C45.7 21.3 91.3 28.7 137 31.8C182.7 35 228.3 34 274 35.3C319.7 36.7 365.3 40.3 411.2 40C457 39.7 503 35.3 548.8 31.3C594.7 27.3 640.3 23.7 686 24.3C731.7 25 777.3 30 823 32.2C868.7 34.3 914.3 33.7 937.2 33.3L960 33L960 0L937.2 0C914.3 0 868.7 0 823 0C777.3 0 731.7 0 686 0C640.3 0 594.7 0 548.8 0C503 0 457 0 411.2 0C365.3 0 319.7 0 274 0C228.3 0 182.7 0 137 0C91.3 0 45.7 0 22.8 0L0 0Z" fill="#556b2f"></path></svg>